<?xml version="1.0" encoding="utf-8"?>
<!-- Generator: Adobe Illustrator 26.2.1, SVG Export Plug-In . SVG Version: 6.00 Build 0)  -->
<svg version="1.1" id="Lager_1" xmlns="http://www.w3.org/2000/svg" xmlns:xlink="http://www.w3.org/1999/xlink" x="0px" y="0px"
	 viewBox="0 0 650.5 650.5" style="enable-background:new 0 0 650.5 650.5;" xml:space="preserve">
<style type="text/css">
	.st0{fill:#DDD;}
</style>
<g>
	<path class="st0" d="M596.7,650.5l-42.6-0.8l0.9-50.8L96.7,616.5l0.8,22.1L55,640.2l-0.8-22L33.7,619l-1.6-42.5l20.6-0.8L34.4,64.7
		l-23.6-0.9l1.6-42.5L32.9,22L32.1,1.5L74.7,0l0.8,23.6l489.6,18.1l0.4-20.1l42.6,0.8l-0.4,20.9l22.1,0.8l-1.6,42.5L607,85.9
		l-8.5,468.7l29.8-1.1l1.6,42.5l-32.2,1.2L596.7,650.5z M77.1,66.3L95.2,574l460.6-17.7l8.6-472L77.1,66.3z M405.5,522.4H235.2
		c-58.7,0-106.4-47.8-106.4-106.4V245.6c0-58.7,47.8-106.4,106.4-106.4h170.3c58.7,0,106.4,47.8,106.4,106.4v170.3
		C511.9,474.6,464.2,522.4,405.5,522.4z M235.2,181.7c-35.2,0-63.9,28.6-63.9,63.9v170.3c0,35.2,28.6,63.9,63.9,63.9h170.3
		c35.2,0,63.9-28.6,63.9-63.9V245.6c0-35.2-28.6-63.9-63.9-63.9H235.2z M320.3,415.9c-47,0-85.2-38.2-85.2-85.2s38.2-85.2,85.2-85.2
		s85.2,38.2,85.2,85.2S367.3,415.9,320.3,415.9z M320.3,288.2c-23.5,0-42.6,19.1-42.6,42.6s19.1,42.6,42.6,42.6
		c23.5,0,42.6-19.1,42.6-42.6S343.8,288.2,320.3,288.2z M416.1,266.9c-17.6,0-31.9-14.3-31.9-31.9s14.3-31.9,31.9-31.9
		s31.9,14.3,31.9,31.9S433.7,266.9,416.1,266.9z M416.1,224.3c-5.9,0-10.6,4.8-10.6,10.6s4.8,10.6,10.6,10.6s10.6-4.8,10.6-10.6
		S422,224.3,416.1,224.3z"/>
</g>
</svg>
