<?xml version="1.0" encoding="utf-8"?>
<!-- Generator: Adobe Illustrator 26.2.1, SVG Export Plug-In . SVG Version: 6.00 Build 0)  -->
<svg version="1.1" id="Lager_1" xmlns="http://www.w3.org/2000/svg" xmlns:xlink="http://www.w3.org/1999/xlink" x="0px" y="0px"
	 viewBox="0 0 650.5 650.5" style="enable-background:new 0 0 650.5 650.5;" xml:space="preserve">
<style type="text/css">
	.st0{fill:#DDD;}
	.st1{fill:none;stroke:#1E2022;stroke-width:2;stroke-linecap:square;}
</style>
<g>
	<g>
		<polygon class="st0" points="22,97.3 20.4,54.8 615.6,32 617.2,74.4 		"/>
	</g>
	<g>
		
			<rect x="563.2" y="11.3" transform="matrix(0.9994 -3.568805e-02 3.568805e-02 0.9994 -11.4179 21.0703)" class="st0" width="42.5" height="638.1"/>
	</g>
	<g>
		<polygon class="st0" points="636.8,628.8 20.4,605.9 22,563.4 638.4,586.3 		"/>
	</g>
	<g>
		<polygon class="st0" points="84.5,628.4 42,627.6 53.4,0.5 95.9,1.3 		"/>
	</g>
</g>
<circle class="st1" cx="639" cy="630" r="0.5"/>
<g>
	<path class="st0" d="M506.4,232.1c0-1.7,0-1.8-1.9-1.8c-4.3,0-8.6-0.5-12.9-1.1c-15.5-2.3-65.9-28.8-74.4-72
		c-0.2-0.8-2.1-11.6-2-16.1c0-2,0-2-2-2.1c-0.5,0-0.9,0-1.4,0c-19.7,0-39.4,0-59.1,0c-4,0-3.4-0.5-3.4,3.5c0,85.5,0,171,0,256.5
		c0,3.2-0.1,6.4-0.7,9.5c-3,16.5-11.4,29.5-25.8,38.3c-12.4,7.7-25.9,9.8-40.2,7c-4.5-0.9-8.7-2.6-13-4.3c-0.3-0.3-0.7-0.6-1-0.9
		c-1.4-1.2-3-2.2-4.5-3.2c-18.2-12.6-26.9-30.2-24.3-52.1c2.7-22.3,15.5-37.4,36.6-45.1c6.3-2.3,12.9-3.3,19.6-2.9
		c4.3,0.2,8.6,0.8,12.8,2c1.5,0.4,2.2-0.1,2.3-1.6c0-0.5,0-1.1,0-1.6c0-15.3-0.6-48.9-0.7-48.9c0-4.4,0-8.8,0.1-13.3
		c0-1.3-0.6-1.5-1.7-1.6c-8-0.9-15.9-1.1-23.9-0.5c-11,0.8-21.8,3.1-32.2,6.8c-16.6,6-31.2,15.2-43.8,27.5
		c-10.8,10.6-19.3,22.8-25.5,36.6c-6,13.2-9.4,27.1-10.3,41.5c-0.4,6.3-0.3,12.5,0.2,18.8c0.8,8.7,2.4,17.2,5.1,25.5
		c7.6,23.8,21.4,43.4,40.9,58.9c2,1.6,3.9,3.3,6.3,4.3c0,0,0,0,0,0c1,0.9,2,1.8,3,2.7c3.2,2.4,6.6,4.4,10.1,6.2
		c21.9,10.8,45,15.2,69.3,12.3c31.6-3.9,57.9-17.8,78.6-41.9c19.5-22.7,28.9-49.3,29.1-79.1c0.2-42.6,0.1-85.1,0.1-127.7
		c0-1-0.6-2.5,0.5-3c0.9-0.4,1.8,0.8,2.6,1.3c15.8,10.4,32.9,17.9,51.4,22.2c10.8,2.5,21.6,4,32.7,3.9c3.5,0,4-0.2,4-3.6
		C507.2,277.4,506.4,236.1,506.4,232.1z"/>
</g>
</svg>
