<?xml version="1.0" encoding="utf-8"?>
<!-- Generator: Adobe Illustrator 26.2.1, SVG Export Plug-In . SVG Version: 6.00 Build 0)  -->
<svg version="1.1" id="Lager_1" xmlns="http://www.w3.org/2000/svg" xmlns:xlink="http://www.w3.org/1999/xlink" x="0px" y="0px"
	 viewBox="0 0 650.5 650.5" style="enable-background:new 0 0 650.5 650.5;" xml:space="preserve">
<style type="text/css">
	.st0{fill:#DDD;}
</style>
<g>
	<path class="st0" d="M44.9,642.4l-0.9-22.5l-20.8,0.8l-1.7-43.3l20.8-0.8L24.1,99.9l-22.5,0.8L0,57.4l22.4-0.8l-0.8-20.8l43.3-1.7
		L65.7,55l519.9-18.6l0.9-24l43.3,1.6l-0.8,20.8l20.9-0.8l1.5,43.3l-24,0.9l-17.6,476.5l18.4-0.7l1.7,43.3l-21.7,0.8l-1.7,44.1
		l-43.3-1.6l1.5-40.9L87.4,618.2l0.9,22.5L44.9,642.4z M67.4,98.3l18.3,476.6l480.7-18.5l17.7-476.6L67.4,98.3z M336.6,489.9h-65
		v-130h-32.5v-65h32.5v-54.2c0-29.9,24.3-54.2,54.2-54.2h75.8v65h-65v43.3H386l-16.2,65h-33.2V489.9z"/>
</g>
</svg>
